# Blender 5.0.1
# www.blender.org
o door1
v 0.300000 0.000000 0.000000
v 0.300000 1.800000 0.000000
v 0.300000 0.000000 -0.500000
v 0.300000 1.800000 -0.500000
v 0.400000 0.000000 0.000000
v 0.400000 1.800000 0.000000
v 0.400000 0.000000 -0.500000
v 0.400000 1.800000 -0.500000
v 0.345000 0.000000 0.000000
v 0.355000 0.000000 0.000000
v 0.355000 1.800000 0.000000
v 0.345000 1.800000 0.000000
v 0.345000 0.000000 -0.400000
v 0.355000 0.000000 -0.400000
v 0.355000 1.800000 -0.400000
v 0.345000 1.800000 -0.400000
vn -1.0000 -0.0000 -0.0000
vn -0.0000 -0.0000 -1.0000
vn 1.0000 -0.0000 -0.0000
vn -0.0000 -0.0000 1.0000
vn -0.0000 -1.0000 -0.0000
vn -0.0000 1.0000 -0.0000
vt 0.625000 0.000000
vt 0.375000 0.250000
vt 0.375000 0.000000
vt 0.625000 0.250000
vt 0.375000 0.500000
vt 0.625000 0.500000
vt 0.375000 0.750000
vt 0.625000 0.916667
vt 0.375000 1.000000
vt 0.375000 0.916667
vt 0.291667 0.750000
vt 0.208333 0.750000
vt 0.875000 0.500000
vt 0.791667 0.750000
vt 0.708333 0.750000
vt 0.625000 0.750000
vt 0.375000 0.833333
vt 0.625000 0.833333
vt 0.625000 1.000000
vt 0.125000 0.750000
vt 0.125000 0.500000
vt 0.875000 0.750000
s 0
f 2/1/1 3/2/1 1/3/1
f 4/4/2 7/5/2 3/2/2
f 8/6/3 5/7/3 7/5/3
f 12/8/4 1/9/4 9/10/4
f 7/5/5 10/11/5 9/12/5
f 4/13/6 12/14/6 11/15/6
f 6/16/4 10/17/4 5/7/4
f 12/14/5 15/15/5 11/15/5
f 15/18/4 13/10/4 14/17/4
f 10/11/6 13/12/6 9/12/6
f 11/18/1 14/17/1 10/17/1
f 9/10/3 16/8/3 12/8/3
f 2/1/1 4/4/1 3/2/1
f 4/4/2 8/6/2 7/5/2
f 8/6/3 6/16/3 5/7/3
f 12/8/4 2/19/4 1/9/4
f 1/20/5 3/21/5 9/12/5
f 3/21/5 7/5/5 9/12/5
f 7/5/5 5/7/5 10/11/5
f 6/16/6 8/6/6 11/15/6
f 8/6/6 4/13/6 11/15/6
f 4/13/6 2/22/6 12/14/6
f 6/16/4 11/18/4 10/17/4
f 12/14/5 16/14/5 15/15/5
f 15/18/4 16/8/4 13/10/4
f 10/11/6 14/11/6 13/12/6
f 11/18/1 15/18/1 14/17/1
f 9/10/3 13/10/3 16/8/3
