# Blender 5.0.1
# www.blender.org
o outerbox
v 0.500000 0.000000 0.500000
v 0.500000 2.000000 0.500000
v 0.500000 0.000000 -0.500000
v 0.500000 2.000000 -0.500000
v -1.000000 0.000000 -0.750000
v -1.000000 0.000000 0.750000
v -1.000000 2.000000 -0.750000
v -1.000000 2.000000 0.750000
v 0.500000 0.000000 -0.750000
v 0.500000 2.000000 -0.750000
v 0.500000 2.000000 0.750000
v 0.500000 0.000000 0.750000
vn -0.0000 -0.0000 1.0000
vn -1.0000 -0.0000 -0.0000
vn -0.0000 -0.0000 -1.0000
vn 1.0000 -0.0000 -0.0000
vt 0.375000 0.750000
vt 0.375000 1.000000
vt 0.375000 0.000000
vt 0.375000 0.250000
vt 0.375000 0.500000
s 0
f 11/1/1 6/2/1 12/1/1
f 8/3/2 5/4/2 6/3/2
f 7/4/3 9/5/3 5/4/3
f 2/1/4 12/1/4 1/1/4
f 10/5/4 3/5/4 9/5/4
f 11/1/1 8/2/1 6/2/1
f 8/3/2 7/4/2 5/4/2
f 7/4/3 10/5/3 9/5/3
f 2/1/4 11/1/4 12/1/4
f 10/5/4 4/5/4 3/5/4
l 2 4
l 3 1
