# Blender 5.0.1
# www.blender.org
o windows.doorframe
v -7.940000 0.100000 -2.900000
v -7.940000 2.900000 -2.900000
v -7.940000 2.900000 -1.100000
v -7.940000 0.100000 -1.100000
v -7.960000 2.900000 -2.900000
v -7.960000 0.100000 -2.900000
v -7.960000 2.900000 -1.100000
v -7.960000 0.100000 -1.100000
v -7.940000 2.500000 -1.250000
v -7.940000 0.100000 -1.250000
v -7.940000 0.100000 -2.750000
v -7.940000 2.500000 -2.750000
v -7.960000 0.100000 -1.250000
v -7.960000 0.100000 -2.750000
v -7.960000 2.500000 -2.750000
v -7.960000 2.500000 -1.250000
vn 1.0000 -0.0000 -0.0000
vn -1.0000 -0.0000 -0.0000
vn -0.0000 -0.0000 -1.0000
vn -0.0000 1.0000 -0.0000
vn -0.0000 -0.0000 1.0000
vn -0.0000 -1.0000 -0.0000
vt 0.379167 0.597500
vt 0.379167 0.556250
vt 0.379167 0.593750
vt 0.495833 0.552500
vt 0.495833 0.597500
vt 0.479167 0.556250
vt 0.479167 0.593750
vt 0.379167 0.556250
vt 0.379167 0.552500
vt 0.225000 0.511111
vt 0.212500 0.486111
vt 0.225000 0.472222
vt 0.500000 0.083333
vt 0.500000 0.166667
vt 0.479167 0.556250
vt 0.212500 0.530556
s 0
f 4/1/1 11/2/1 10/3/1
f 2/4/1 3/5/1 12/6/1
f 7/5/2 5/4/2 16/7/2
f 8/1/2 14/8/2 6/9/2
f 6/9/3 2/4/3 1/9/3
f 5/4/4 3/5/4 2/4/4
f 7/5/5 4/1/5 3/5/5
f 8/1/6 1/9/6 4/1/6
f 13/10/4 11/11/4 14/12/4
f 16/13/6 12/14/6 9/13/6
f 9/13/3 13/10/3 16/13/3
f 11/11/5 15/14/5 14/12/5
f 4/1/1 1/9/1 11/2/1
f 12/6/1 11/2/1 1/9/1
f 3/5/1 4/1/1 9/7/1
f 4/1/1 10/3/1 9/7/1
f 12/6/1 1/9/1 2/4/1
f 3/5/1 9/7/1 12/6/1
f 13/3/2 8/1/2 16/7/2
f 8/1/2 7/5/2 16/7/2
f 5/4/2 6/9/2 15/15/2
f 6/9/2 14/8/2 15/15/2
f 5/4/2 15/15/2 16/7/2
f 8/1/2 13/3/2 14/8/2
f 6/9/3 5/4/3 2/4/3
f 5/4/4 7/5/4 3/5/4
f 7/5/5 8/1/5 4/1/5
f 8/1/6 6/9/6 1/9/6
f 13/10/4 10/16/4 11/11/4
f 16/13/6 15/14/6 12/14/6
f 9/13/3 10/16/3 13/10/3
f 11/11/5 12/14/5 15/14/5
