# Blender 5.0.1
# www.blender.org
o windows
v -7.940000 0.100000 -4.900000
v -7.940000 5.900000 -4.900000
v -7.940000 0.100000 4.900000
v -7.940000 5.900000 4.900000
v -7.940000 3.100000 3.100000
v -7.940000 5.900000 3.100000
v -7.940000 3.100000 4.900000
v -7.940000 3.100000 -4.900000
v -7.940000 5.900000 -3.100000
v -7.940000 3.100000 -3.100000
v -7.940000 3.100000 -2.900000
v -7.940000 5.900000 -2.900000
v -7.940000 5.900000 -1.100000
v -7.940000 3.100000 -1.100000
v -7.940000 3.100000 -0.900000
v -7.940000 5.900000 -0.900000
v -7.940000 5.900000 0.900000
v -7.940000 3.100000 0.900000
v -7.940000 3.100000 1.100000
v -7.940000 5.900000 1.100000
v -7.940000 5.900000 2.900000
v -7.940000 3.100000 2.900000
v -7.940000 0.100000 1.100000
v -7.940000 2.900000 1.100000
v -7.940000 2.900000 2.900000
v -7.940000 0.100000 2.900000
v -7.940000 0.100000 -0.900000
v -7.940000 2.900000 -0.900000
v -7.940000 2.900000 0.900000
v -7.940000 0.100000 0.900000
v -7.940000 0.100000 -2.900000
v -7.940000 2.900000 -2.900000
v -7.940000 2.900000 -1.100000
v -7.940000 0.100000 -1.100000
v -7.940000 2.900000 -4.900000
v -7.940000 2.900000 -3.100000
v -7.940000 0.100000 -3.100000
v -7.940000 0.100000 3.100000
v -7.940000 2.900000 3.100000
v -7.940000 2.900000 4.900000
v -7.960000 5.900000 3.100000
v -7.960000 3.100000 3.100000
v -7.960000 3.100000 4.900000
v -7.960000 3.100000 -3.100000
v -7.960000 5.900000 -3.100000
v -7.960000 3.100000 -4.900000
v -7.960000 5.900000 -2.900000
v -7.960000 3.100000 -2.900000
v -7.960000 5.900000 -1.100000
v -7.960000 3.100000 -1.100000
v -7.960000 5.900000 -0.900000
v -7.960000 3.100000 -0.900000
v -7.960000 5.900000 0.900000
v -7.960000 3.100000 0.900000
v -7.960000 5.900000 1.100000
v -7.960000 3.100000 1.100000
v -7.960000 5.900000 2.900000
v -7.960000 3.100000 2.900000
v -7.960000 2.900000 1.100000
v -7.960000 0.100000 1.100000
v -7.960000 2.900000 2.900000
v -7.960000 0.100000 2.900000
v -7.960000 2.900000 -0.900000
v -7.960000 0.100000 -0.900000
v -7.960000 2.900000 0.900000
v -7.960000 0.100000 0.900000
v -7.960000 2.900000 -2.900000
v -7.960000 0.100000 -2.900000
v -7.960000 2.900000 -1.100000
v -7.960000 0.100000 -1.100000
v -7.960000 2.900000 -3.100000
v -7.960000 2.900000 -4.900000
v -7.960000 0.100000 -3.100000
v -7.960000 2.900000 3.100000
v -7.960000 0.100000 3.100000
v -7.960000 2.900000 4.900000
v -7.960000 5.900000 4.900000
v -7.960000 5.900000 -4.900000
v -7.960000 0.100000 -4.900000
v -7.960000 0.100000 4.900000
v 7.940000 0.100000 -4.900000
v 7.940000 5.900000 -4.900000
v 7.940000 0.100000 4.900000
v 7.940000 5.900000 4.900000
v 7.940000 3.100000 3.100000
v 7.940000 5.900000 3.100000
v 7.940000 3.100000 4.900000
v 7.940000 3.100000 -4.900000
v 7.940000 5.900000 -3.100000
v 7.940000 3.100000 -3.100000
v 7.940000 3.100000 -2.900000
v 7.940000 5.900000 -2.900000
v 7.940000 5.900000 -1.100000
v 7.940000 3.100000 -1.100000
v 7.940000 3.100000 -0.900000
v 7.940000 5.900000 -0.900000
v 7.940000 5.900000 0.900000
v 7.940000 3.100000 0.900000
v 7.940000 3.100000 1.100000
v 7.940000 5.900000 1.100000
v 7.940000 5.900000 2.900000
v 7.940000 3.100000 2.900000
v 7.940000 0.100000 1.100000
v 7.940000 2.900000 1.100000
v 7.940000 2.900000 2.900000
v 7.940000 0.100000 2.900000
v 7.940000 0.100000 -0.900000
v 7.940000 2.900000 -0.900000
v 7.940000 2.900000 0.900000
v 7.940000 0.100000 0.900000
v 7.940000 0.100000 -2.900000
v 7.940000 2.900000 -2.900000
v 7.940000 2.900000 -1.100000
v 7.940000 0.100000 -1.100000
v 7.940000 2.900000 -4.900000
v 7.940000 2.900000 -3.100000
v 7.940000 0.100000 -3.100000
v 7.940000 0.100000 3.100000
v 7.940000 2.900000 3.100000
v 7.940000 2.900000 4.900000
v 7.960000 5.900000 3.100000
v 7.960000 3.100000 3.100000
v 7.960000 3.100000 4.900000
v 7.960000 3.100000 -3.100000
v 7.960000 5.900000 -3.100000
v 7.960000 3.100000 -4.900000
v 7.960000 5.900000 -2.900000
v 7.960000 3.100000 -2.900000
v 7.960000 5.900000 -1.100000
v 7.960000 3.100000 -1.100000
v 7.960000 5.900000 -0.900000
v 7.960000 3.100000 -0.900000
v 7.960000 5.900000 0.900000
v 7.960000 3.100000 0.900000
v 7.960000 5.900000 1.100000
v 7.960000 3.100000 1.100000
v 7.960000 5.900000 2.900000
v 7.960000 3.100000 2.900000
v 7.960000 2.900000 1.100000
v 7.960000 0.100000 1.100000
v 7.960000 2.900000 2.900000
v 7.960000 0.100000 2.900000
v 7.960000 2.900000 -0.900000
v 7.960000 0.100000 -0.900000
v 7.960000 2.900000 0.900000
v 7.960000 0.100000 0.900000
v 7.960000 2.900000 -2.900000
v 7.960000 0.100000 -2.900000
v 7.960000 2.900000 -1.100000
v 7.960000 0.100000 -1.100000
v 7.960000 2.900000 -3.100000
v 7.960000 2.900000 -4.900000
v 7.960000 0.100000 -3.100000
v 7.960000 2.900000 3.100000
v 7.960000 0.100000 3.100000
v 7.960000 2.900000 4.900000
v 7.960000 5.900000 4.900000
v 7.960000 5.900000 -4.900000
v 7.960000 0.100000 -4.900000
v 7.960000 0.100000 4.900000
v -2.900000 5.900000 6.940000
v 2.900000 5.900000 6.940000
v 1.100000 3.100000 6.940000
v 2.900000 3.100000 6.940000
v 1.100000 5.900000 6.940000
v 0.900000 2.900000 6.940000
v 0.900000 0.100000 6.940000
v -1.100000 3.100000 6.940000
v -2.900000 3.100000 6.940000
v -1.100000 5.900000 6.940000
v 1.100000 0.100000 6.940000
v 2.900000 0.100000 6.940000
v 2.900000 2.900000 6.940000
v 1.100000 2.900000 6.940000
v -0.900000 2.900000 6.940000
v -0.900000 0.100000 6.940000
v -1.100000 0.100000 6.940000
v -2.900000 0.100000 6.940000
v -2.900000 2.900000 6.940000
v -1.100000 2.900000 6.940000
v 0.900000 5.900000 6.940000
v 0.900000 3.100000 6.940000
v -0.900000 5.900000 6.940000
v -0.900000 3.100000 6.940000
v 0.000000 5.900000 6.940000
v 1.100000 3.100000 6.960000
v 1.100000 5.900000 6.960000
v 0.900000 2.900000 6.960000
v 0.900000 0.100000 6.960000
v 1.100000 0.100000 6.960000
v 1.100000 2.900000 6.960000
v 2.900000 2.900000 6.960000
v 2.900000 0.100000 6.960000
v 0.900000 5.900000 6.960000
v 0.900000 3.100000 6.960000
v -2.900000 3.100000 6.960000
v -1.100000 3.100000 6.960000
v -1.100000 5.900000 6.960000
v -0.900000 2.900000 6.960000
v -0.900000 0.100000 6.960000
v -2.900000 0.100000 6.960000
v -1.100000 0.100000 6.960000
v -2.900000 2.900000 6.960000
v -1.100000 2.900000 6.960000
v 2.900000 3.100000 6.960000
v -0.900000 5.900000 6.960000
v -0.900000 3.100000 6.960000
v -2.900000 5.900000 6.960000
v 2.900000 5.900000 6.960000
v 0.000000 5.900000 6.960000
vn 1.0000 -0.0000 -0.0000
vn -1.0000 -0.0000 -0.0000
vn -0.0000 -0.0000 -1.0000
vn -0.0000 -1.0000 -0.0000
vn -0.0000 -0.0000 1.0000
vn -0.0000 1.0000 -0.0000
vt 0.620833 0.597500
vt 0.504167 0.552500
vt 0.620833 0.552500
vt 0.504167 0.547500
vt 0.620833 0.502500
vt 0.620833 0.547500
vt 0.495833 0.697500
vt 0.379167 0.652500
vt 0.495833 0.652500
vt 0.379167 0.547500
vt 0.495833 0.502500
vt 0.495833 0.547500
vt 0.495833 0.747500
vt 0.379167 0.702500
vt 0.495833 0.702500
vt 0.620833 0.647500
vt 0.504167 0.602500
vt 0.620833 0.602500
vt 0.620833 0.697500
vt 0.504167 0.652500
vt 0.620833 0.652500
vt 0.495833 0.597500
vt 0.379167 0.552500
vt 0.495833 0.552500
vt 0.620833 0.747500
vt 0.504167 0.702500
vt 0.620833 0.702500
vt 0.495833 0.647500
vt 0.379167 0.602500
vt 0.495833 0.602500
vt 0.504167 0.502500
vt 0.504167 0.647500
vt 0.379167 0.747500
vt 0.379167 0.597500
vt 0.504167 0.697500
vt 0.504167 0.747500
vt 0.379167 0.697500
vt 0.504167 0.597500
vt 0.379167 0.647500
vt 0.379167 0.502500
vt 0.379167 0.833333
vt 0.495833 0.833333
vt 0.379167 0.833333
vt 0.620833 0.833333
vt 0.504167 0.833333
vt 0.504167 0.833333
vt 0.379167 0.833333
s 0
f 13/1/1 11/2/1 12/3/1
f 10/4/1 2/5/1 9/6/1
f 25/7/1 23/8/1 24/9/1
f 37/10/1 35/11/1 36/12/1
f 40/13/1 38/14/1 39/15/1
f 17/16/1 15/17/1 16/18/1
f 21/19/1 19/20/1 20/21/1
f 33/22/1 31/23/1 32/24/1
f 4/25/1 5/26/1 6/27/1
f 29/28/1 27/29/1 28/30/1
f 48/2/2 49/1/2 47/3/2
f 44/4/2 78/5/2 46/31/2
f 60/8/2 61/7/2 59/9/2
f 72/11/2 73/10/2 71/12/2
f 75/14/2 76/13/2 74/15/2
f 52/17/2 53/16/2 51/18/2
f 56/20/2 57/19/2 55/21/2
f 68/23/2 69/22/2 67/24/2
f 42/26/2 77/25/2 41/27/2
f 64/29/2 65/28/2 63/30/2
f 68/23/3 32/24/3 31/23/3
f 54/32/4 15/17/4 18/32/4
f 76/13/5 3/33/5 40/13/5
f 67/24/6 33/22/6 32/24/6
f 56/20/3 20/21/3 19/20/3
f 80/33/4 38/14/4 3/33/4
f 69/22/5 34/34/5 33/22/5
f 55/21/6 21/19/6 20/21/6
f 42/26/3 6/27/3 5/26/3
f 70/34/4 31/23/4 34/34/4
f 57/19/5 22/35/5 21/19/5
f 43/36/4 5/26/4 7/36/4
f 72/11/6 36/12/6 35/11/6
f 58/35/4 19/20/4 22/35/4
f 45/6/5 10/4/5 9/6/5
f 71/12/5 37/10/5 36/12/5
f 60/8/3 24/9/3 23/8/3
f 44/4/4 8/31/4 10/4/4
f 75/14/3 39/15/3 38/14/3
f 59/9/6 25/7/6 24/9/6
f 48/2/3 12/3/3 11/2/3
f 74/15/6 40/13/6 39/15/6
f 61/7/5 26/37/5 25/7/5
f 47/3/6 13/1/6 12/3/6
f 41/27/6 4/25/6 6/27/6
f 62/37/4 23/8/4 26/37/4
f 49/1/5 14/38/5 13/1/5
f 77/25/5 7/36/5 4/25/5
f 64/29/3 28/30/3 27/29/3
f 50/38/4 11/2/4 14/38/4
f 46/31/3 2/5/3 8/31/3
f 63/30/6 29/28/6 28/30/6
f 52/17/3 16/18/3 15/17/3
f 78/5/6 9/6/6 2/5/6
f 65/28/5 30/39/5 29/28/5
f 51/18/6 17/16/6 16/18/6
f 79/40/3 35/11/3 1/40/3
f 66/39/4 27/29/4 30/39/4
f 53/16/5 18/32/5 17/16/5
f 73/10/4 1/40/4 37/10/4
f 91/2/2 93/1/2 92/3/2
f 90/4/2 82/5/2 88/31/2
f 103/8/2 105/7/2 104/9/2
f 115/11/2 117/10/2 116/12/2
f 118/14/2 120/13/2 119/15/2
f 95/17/2 97/16/2 96/18/2
f 99/20/2 101/19/2 100/21/2
f 111/23/2 113/22/2 112/24/2
f 85/26/2 84/25/2 86/27/2
f 107/29/2 109/28/2 108/30/2
f 129/1/1 128/2/1 127/3/1
f 124/4/1 158/5/1 125/6/1
f 141/7/1 140/8/1 139/9/1
f 153/10/1 152/11/1 151/12/1
f 156/13/1 155/14/1 154/15/1
f 133/16/1 132/17/1 131/18/1
f 137/19/1 136/20/1 135/21/1
f 149/22/1 148/23/1 147/24/1
f 157/25/1 122/26/1 121/27/1
f 145/28/1 144/29/1 143/30/1
f 112/24/3 148/23/3 111/23/3
f 95/17/4 134/32/4 98/32/4
f 83/33/5 156/13/5 120/13/5
f 113/22/6 147/24/6 112/24/6
f 100/21/3 136/20/3 99/20/3
f 118/14/4 160/33/4 83/33/4
f 114/34/5 149/22/5 113/22/5
f 101/19/6 135/21/6 100/21/6
f 86/27/3 122/26/3 85/26/3
f 111/23/4 150/34/4 114/34/4
f 102/35/5 137/19/5 101/19/5
f 85/26/4 123/36/4 87/36/4
f 116/12/6 152/11/6 115/11/6
f 99/20/4 138/35/4 102/35/4
f 90/4/5 125/6/5 89/6/5
f 117/10/5 151/12/5 116/12/5
f 104/9/3 140/8/3 103/8/3
f 88/31/4 124/4/4 90/4/4
f 119/15/3 155/14/3 118/14/3
f 105/7/6 139/9/6 104/9/6
f 92/3/3 128/2/3 91/2/3
f 120/13/6 154/15/6 119/15/6
f 106/37/5 141/7/5 105/7/5
f 93/1/6 127/3/6 92/3/6
f 84/25/6 121/27/6 86/27/6
f 103/8/4 142/37/4 106/37/4
f 94/38/5 129/1/5 93/1/5
f 87/36/5 157/25/5 84/25/5
f 108/30/3 144/29/3 107/29/3
f 91/2/4 130/38/4 94/38/4
f 82/5/3 126/31/3 88/31/3
f 109/28/6 143/30/6 108/30/6
f 96/18/3 132/17/3 95/17/3
f 89/6/6 158/5/6 82/5/6
f 110/39/5 145/28/5 109/28/5
f 97/16/6 131/18/6 96/18/6
f 115/11/3 159/40/3 81/40/3
f 107/29/4 146/39/4 110/39/4
f 98/32/5 133/16/5 97/16/5
f 81/40/4 153/10/4 117/10/4
f 171/41/3 173/42/3 172/43/3
f 185/44/3 182/45/3 184/45/3
f 161/44/3 168/45/3 169/46/3
f 179/42/3 177/41/3 178/43/3
f 163/45/3 162/44/3 164/46/3
f 175/42/3 167/47/3 176/47/3
f 192/42/5 190/41/5 193/43/5
f 195/45/5 194/44/5 210/44/5
f 197/45/5 208/44/5 196/46/5
f 202/41/5 203/42/5 201/43/5
f 209/44/5 186/45/5 205/46/5
f 189/47/5 199/42/5 200/47/5
f 197/45/4 169/46/4 168/45/4
f 187/44/6 162/44/6 165/44/6
f 204/42/1 177/41/1 180/42/1
f 198/44/1 168/45/1 170/44/1
f 189/47/4 176/47/4 167/47/4
f 205/46/4 163/45/4 164/46/4
f 191/42/6 173/42/6 174/42/6
f 210/44/6 181/44/6 185/44/6
f 186/45/2 165/44/2 163/45/2
f 207/45/2 183/44/2 184/45/2
f 193/43/4 171/41/4 172/43/4
f 195/45/4 184/45/4 182/45/4
f 188/42/1 167/47/1 166/42/1
f 196/46/2 161/44/2 169/46/2
f 200/47/2 175/42/2 176/47/2
f 199/42/6 166/42/6 175/42/6
f 190/41/2 174/42/2 171/41/2
f 208/44/6 170/44/6 161/44/6
f 202/41/4 178/43/4 177/41/4
f 192/42/1 172/43/1 173/42/1
f 209/44/1 164/46/1 162/44/1
f 201/43/2 179/42/2 178/43/2
f 194/44/1 182/45/1 181/44/1
f 206/44/6 185/44/6 183/44/6
f 203/42/6 180/42/6 179/42/6
f 13/1/1 14/38/1 11/2/1
f 10/4/1 8/31/1 2/5/1
f 25/7/1 26/37/1 23/8/1
f 37/10/1 1/40/1 35/11/1
f 40/13/1 3/33/1 38/14/1
f 17/16/1 18/32/1 15/17/1
f 21/19/1 22/35/1 19/20/1
f 33/22/1 34/34/1 31/23/1
f 4/25/1 7/36/1 5/26/1
f 29/28/1 30/39/1 27/29/1
f 48/2/2 50/38/2 49/1/2
f 44/4/2 45/6/2 78/5/2
f 60/8/2 62/37/2 61/7/2
f 72/11/2 79/40/2 73/10/2
f 75/14/2 80/33/2 76/13/2
f 52/17/2 54/32/2 53/16/2
f 56/20/2 58/35/2 57/19/2
f 68/23/2 70/34/2 69/22/2
f 42/26/2 43/36/2 77/25/2
f 64/29/2 66/39/2 65/28/2
f 68/23/3 67/24/3 32/24/3
f 54/32/4 52/17/4 15/17/4
f 76/13/5 80/33/5 3/33/5
f 67/24/6 69/22/6 33/22/6
f 56/20/3 55/21/3 20/21/3
f 80/33/4 75/14/4 38/14/4
f 69/22/5 70/34/5 34/34/5
f 55/21/6 57/19/6 21/19/6
f 42/26/3 41/27/3 6/27/3
f 70/34/4 68/23/4 31/23/4
f 57/19/5 58/35/5 22/35/5
f 43/36/4 42/26/4 5/26/4
f 72/11/6 71/12/6 36/12/6
f 58/35/4 56/20/4 19/20/4
f 45/6/5 44/4/5 10/4/5
f 71/12/5 73/10/5 37/10/5
f 60/8/3 59/9/3 24/9/3
f 44/4/4 46/31/4 8/31/4
f 75/14/3 74/15/3 39/15/3
f 59/9/6 61/7/6 25/7/6
f 48/2/3 47/3/3 12/3/3
f 74/15/6 76/13/6 40/13/6
f 61/7/5 62/37/5 26/37/5
f 47/3/6 49/1/6 13/1/6
f 41/27/6 77/25/6 4/25/6
f 62/37/4 60/8/4 23/8/4
f 49/1/5 50/38/5 14/38/5
f 77/25/5 43/36/5 7/36/5
f 64/29/3 63/30/3 28/30/3
f 50/38/4 48/2/4 11/2/4
f 46/31/3 78/5/3 2/5/3
f 63/30/6 65/28/6 29/28/6
f 52/17/3 51/18/3 16/18/3
f 78/5/6 45/6/6 9/6/6
f 65/28/5 66/39/5 30/39/5
f 51/18/6 53/16/6 17/16/6
f 79/40/3 72/11/3 35/11/3
f 66/39/4 64/29/4 27/29/4
f 53/16/5 54/32/5 18/32/5
f 73/10/4 79/40/4 1/40/4
f 91/2/2 94/38/2 93/1/2
f 90/4/2 89/6/2 82/5/2
f 103/8/2 106/37/2 105/7/2
f 115/11/2 81/40/2 117/10/2
f 118/14/2 83/33/2 120/13/2
f 95/17/2 98/32/2 97/16/2
f 99/20/2 102/35/2 101/19/2
f 111/23/2 114/34/2 113/22/2
f 85/26/2 87/36/2 84/25/2
f 107/29/2 110/39/2 109/28/2
f 129/1/1 130/38/1 128/2/1
f 124/4/1 126/31/1 158/5/1
f 141/7/1 142/37/1 140/8/1
f 153/10/1 159/40/1 152/11/1
f 156/13/1 160/33/1 155/14/1
f 133/16/1 134/32/1 132/17/1
f 137/19/1 138/35/1 136/20/1
f 149/22/1 150/34/1 148/23/1
f 157/25/1 123/36/1 122/26/1
f 145/28/1 146/39/1 144/29/1
f 112/24/3 147/24/3 148/23/3
f 95/17/4 132/17/4 134/32/4
f 83/33/5 160/33/5 156/13/5
f 113/22/6 149/22/6 147/24/6
f 100/21/3 135/21/3 136/20/3
f 118/14/4 155/14/4 160/33/4
f 114/34/5 150/34/5 149/22/5
f 101/19/6 137/19/6 135/21/6
f 86/27/3 121/27/3 122/26/3
f 111/23/4 148/23/4 150/34/4
f 102/35/5 138/35/5 137/19/5
f 85/26/4 122/26/4 123/36/4
f 116/12/6 151/12/6 152/11/6
f 99/20/4 136/20/4 138/35/4
f 90/4/5 124/4/5 125/6/5
f 117/10/5 153/10/5 151/12/5
f 104/9/3 139/9/3 140/8/3
f 88/31/4 126/31/4 124/4/4
f 119/15/3 154/15/3 155/14/3
f 105/7/6 141/7/6 139/9/6
f 92/3/3 127/3/3 128/2/3
f 120/13/6 156/13/6 154/15/6
f 106/37/5 142/37/5 141/7/5
f 93/1/6 129/1/6 127/3/6
f 84/25/6 157/25/6 121/27/6
f 103/8/4 140/8/4 142/37/4
f 94/38/5 130/38/5 129/1/5
f 87/36/5 123/36/5 157/25/5
f 108/30/3 143/30/3 144/29/3
f 91/2/4 128/2/4 130/38/4
f 82/5/3 158/5/3 126/31/3
f 109/28/6 145/28/6 143/30/6
f 96/18/3 131/18/3 132/17/3
f 89/6/6 125/6/6 158/5/6
f 110/39/5 146/39/5 145/28/5
f 97/16/6 133/16/6 131/18/6
f 115/11/3 152/11/3 159/40/3
f 107/29/4 144/29/4 146/39/4
f 98/32/5 134/32/5 133/16/5
f 81/40/4 159/40/4 153/10/4
f 171/41/3 174/42/3 173/42/3
f 184/45/3 183/44/3 185/44/3
f 185/44/3 181/44/3 182/45/3
f 161/44/3 170/44/3 168/45/3
f 179/42/3 180/42/3 177/41/3
f 163/45/3 165/44/3 162/44/3
f 175/42/3 166/42/3 167/47/3
f 192/42/5 191/42/5 190/41/5
f 210/44/5 206/44/5 207/45/5
f 207/45/5 195/45/5 210/44/5
f 197/45/5 198/44/5 208/44/5
f 202/41/5 204/42/5 203/42/5
f 209/44/5 187/44/5 186/45/5
f 189/47/5 188/42/5 199/42/5
f 197/45/4 196/46/4 169/46/4
f 187/44/6 209/44/6 162/44/6
f 204/42/1 202/41/1 177/41/1
f 198/44/1 197/45/1 168/45/1
f 189/47/4 200/47/4 176/47/4
f 205/46/4 186/45/4 163/45/4
f 191/42/6 192/42/6 173/42/6
f 210/44/6 194/44/6 181/44/6
f 186/45/2 187/44/2 165/44/2
f 207/45/2 206/44/2 183/44/2
f 193/43/4 190/41/4 171/41/4
f 195/45/4 207/45/4 184/45/4
f 188/42/1 189/47/1 167/47/1
f 196/46/2 208/44/2 161/44/2
f 200/47/2 199/42/2 175/42/2
f 199/42/6 188/42/6 166/42/6
f 190/41/2 191/42/2 174/42/2
f 208/44/6 198/44/6 170/44/6
f 202/41/4 201/43/4 178/43/4
f 192/42/1 193/43/1 172/43/1
f 209/44/1 205/46/1 164/46/1
f 201/43/2 203/42/2 179/42/2
f 194/44/1 195/45/1 182/45/1
f 206/44/6 210/44/6 185/44/6
f 203/42/6 204/42/6 180/42/6
