# Blender 5.0.1
# www.blender.org
o windows.door
v -7.940000 0.100000 -4.900000
v -7.940000 5.900000 -4.900000
v -7.940000 0.100000 4.900000
v -7.940000 5.900000 4.900000
v -7.940000 3.100000 3.100000
v -7.940000 5.900000 3.100000
v -7.940000 3.100000 4.900000
v -7.940000 3.100000 -4.900000
v -7.940000 5.900000 -3.100000
v -7.940000 3.100000 -3.100000
v -7.940000 3.100000 -2.900000
v -7.940000 5.900000 -2.900000
v -7.940000 5.900000 -1.100000
v -7.940000 3.100000 -1.100000
v -7.940000 3.100000 -0.900000
v -7.940000 5.900000 -0.900000
v -7.940000 5.900000 0.900000
v -7.940000 3.100000 0.900000
v -7.940000 3.100000 1.100000
v -7.940000 5.900000 1.100000
v -7.940000 5.900000 2.900000
v -7.940000 3.100000 2.900000
v -7.940000 0.100000 1.100000
v -7.940000 2.900000 1.100000
v -7.940000 2.900000 2.900000
v -7.940000 0.100000 2.900000
v -7.940000 0.100000 -0.900000
v -7.940000 2.900000 -0.900000
v -7.940000 2.900000 0.900000
v -7.940000 0.100000 0.900000
v -7.940000 2.900000 -4.900000
v -7.940000 2.900000 -3.100000
v -7.940000 0.100000 -3.100000
v -7.940000 0.100000 3.100000
v -7.940000 2.900000 3.100000
v -7.940000 2.900000 4.900000
v -7.960000 5.900000 3.100000
v -7.960000 3.100000 3.100000
v -7.960000 3.100000 4.900000
v -7.960000 3.100000 -3.100000
v -7.960000 5.900000 -3.100000
v -7.960000 3.100000 -4.900000
v -7.960000 5.900000 -2.900000
v -7.960000 3.100000 -2.900000
v -7.960000 5.900000 -1.100000
v -7.960000 3.100000 -1.100000
v -7.960000 5.900000 -0.900000
v -7.960000 3.100000 -0.900000
v -7.960000 5.900000 0.900000
v -7.960000 3.100000 0.900000
v -7.960000 5.900000 1.100000
v -7.960000 3.100000 1.100000
v -7.960000 5.900000 2.900000
v -7.960000 3.100000 2.900000
v -7.960000 2.900000 1.100000
v -7.960000 0.100000 1.100000
v -7.960000 2.900000 2.900000
v -7.960000 0.100000 2.900000
v -7.960000 2.900000 -0.900000
v -7.960000 0.100000 -0.900000
v -7.960000 2.900000 0.900000
v -7.960000 0.100000 0.900000
v -7.960000 2.900000 -3.100000
v -7.960000 2.900000 -4.900000
v -7.960000 0.100000 -3.100000
v -7.960000 2.900000 3.100000
v -7.960000 0.100000 3.100000
v -7.960000 2.900000 4.900000
v -7.960000 5.900000 4.900000
v -7.960000 5.900000 -4.900000
v -7.960000 0.100000 -4.900000
v -7.960000 0.100000 4.900000
v 7.940000 0.100000 -4.900000
v 7.940000 5.900000 -4.900000
v 7.940000 0.100000 4.900000
v 7.940000 5.900000 4.900000
v 7.940000 3.100000 3.100000
v 7.940000 5.900000 3.100000
v 7.940000 3.100000 4.900000
v 7.940000 3.100000 -4.900000
v 7.940000 5.900000 -3.100000
v 7.940000 3.100000 -3.100000
v 7.940000 3.100000 -2.900000
v 7.940000 5.900000 -2.900000
v 7.940000 5.900000 -1.100000
v 7.940000 3.100000 -1.100000
v 7.940000 3.100000 -0.900000
v 7.940000 5.900000 -0.900000
v 7.940000 5.900000 0.900000
v 7.940000 3.100000 0.900000
v 7.940000 3.100000 1.100000
v 7.940000 5.900000 1.100000
v 7.940000 5.900000 2.900000
v 7.940000 3.100000 2.900000
v 7.940000 0.100000 1.100000
v 7.940000 2.900000 1.100000
v 7.940000 2.900000 2.900000
v 7.940000 0.100000 2.900000
v 7.940000 0.100000 -0.900000
v 7.940000 2.900000 -0.900000
v 7.940000 2.900000 0.900000
v 7.940000 0.100000 0.900000
v 7.940000 0.100000 -2.900000
v 7.940000 2.900000 -2.900000
v 7.940000 2.900000 -1.100000
v 7.940000 0.100000 -1.100000
v 7.940000 2.900000 -4.900000
v 7.940000 2.900000 -3.100000
v 7.940000 0.100000 -3.100000
v 7.940000 0.100000 3.100000
v 7.940000 2.900000 3.100000
v 7.940000 2.900000 4.900000
v 7.960000 5.900000 3.100000
v 7.960000 3.100000 3.100000
v 7.960000 3.100000 4.900000
v 7.960000 3.100000 -3.100000
v 7.960000 5.900000 -3.100000
v 7.960000 3.100000 -4.900000
v 7.960000 5.900000 -2.900000
v 7.960000 3.100000 -2.900000
v 7.960000 5.900000 -1.100000
v 7.960000 3.100000 -1.100000
v 7.960000 5.900000 -0.900000
v 7.960000 3.100000 -0.900000
v 7.960000 5.900000 0.900000
v 7.960000 3.100000 0.900000
v 7.960000 5.900000 1.100000
v 7.960000 3.100000 1.100000
v 7.960000 5.900000 2.900000
v 7.960000 3.100000 2.900000
v 7.960000 2.900000 1.100000
v 7.960000 0.100000 1.100000
v 7.960000 2.900000 2.900000
v 7.960000 0.100000 2.900000
v 7.960000 2.900000 -0.900000
v 7.960000 0.100000 -0.900000
v 7.960000 2.900000 0.900000
v 7.960000 0.100000 0.900000
v 7.960000 2.900000 -2.900000
v 7.960000 0.100000 -2.900000
v 7.960000 2.900000 -1.100000
v 7.960000 0.100000 -1.100000
v 7.960000 2.900000 -3.100000
v 7.960000 2.900000 -4.900000
v 7.960000 0.100000 -3.100000
v 7.960000 2.900000 3.100000
v 7.960000 0.100000 3.100000
v 7.960000 2.900000 4.900000
v 7.960000 5.900000 4.900000
v 7.960000 5.900000 -4.900000
v 7.960000 0.100000 -4.900000
v 7.960000 0.100000 4.900000
v -2.900000 5.900000 6.940000
v 2.900000 5.900000 6.940000
v 1.100000 3.100000 6.940000
v 2.900000 3.100000 6.940000
v 1.100000 5.900000 6.940000
v 0.900000 2.900000 6.940000
v 0.900000 0.100000 6.940000
v -1.100000 3.100000 6.940000
v -2.900000 3.100000 6.940000
v -1.100000 5.900000 6.940000
v 1.100000 0.100000 6.940000
v 2.900000 0.100000 6.940000
v 2.900000 2.900000 6.940000
v 1.100000 2.900000 6.940000
v -0.900000 2.900000 6.940000
v -0.900000 0.100000 6.940000
v -1.100000 0.100000 6.940000
v -2.900000 0.100000 6.940000
v -2.900000 2.900000 6.940000
v -1.100000 2.900000 6.940000
v 0.900000 5.900000 6.940000
v 0.900000 3.100000 6.940000
v -0.900000 5.900000 6.940000
v -0.900000 3.100000 6.940000
v 0.000000 5.900000 6.940000
v 1.100000 3.100000 6.960000
v 1.100000 5.900000 6.960000
v 0.900000 2.900000 6.960000
v 0.900000 0.100000 6.960000
v 1.100000 0.100000 6.960000
v 1.100000 2.900000 6.960000
v 2.900000 2.900000 6.960000
v 2.900000 0.100000 6.960000
v 0.900000 5.900000 6.960000
v 0.900000 3.100000 6.960000
v -2.900000 3.100000 6.960000
v -1.100000 3.100000 6.960000
v -1.100000 5.900000 6.960000
v -0.900000 2.900000 6.960000
v -0.900000 0.100000 6.960000
v -2.900000 0.100000 6.960000
v -1.100000 0.100000 6.960000
v -2.900000 2.900000 6.960000
v -1.100000 2.900000 6.960000
v 2.900000 3.100000 6.960000
v -0.900000 5.900000 6.960000
v -0.900000 3.100000 6.960000
v -2.900000 5.900000 6.960000
v 2.900000 5.900000 6.960000
v 0.000000 5.900000 6.960000
vn 1.0000 -0.0000 -0.0000
vn -1.0000 -0.0000 -0.0000
vn -0.0000 -1.0000 -0.0000
vn -0.0000 -0.0000 1.0000
vn -0.0000 -0.0000 -1.0000
vn -0.0000 1.0000 -0.0000
vt 0.620833 0.597500
vt 0.504167 0.552500
vt 0.620833 0.552500
vt 0.504167 0.547500
vt 0.620833 0.502500
vt 0.620833 0.547500
vt 0.495833 0.697500
vt 0.379167 0.652500
vt 0.495833 0.652500
vt 0.379167 0.547500
vt 0.495833 0.502500
vt 0.495833 0.547500
vt 0.495833 0.747500
vt 0.379167 0.702500
vt 0.495833 0.702500
vt 0.620833 0.647500
vt 0.504167 0.602500
vt 0.620833 0.602500
vt 0.620833 0.697500
vt 0.504167 0.652500
vt 0.620833 0.652500
vt 0.620833 0.747500
vt 0.504167 0.702500
vt 0.620833 0.702500
vt 0.495833 0.647500
vt 0.379167 0.602500
vt 0.495833 0.602500
vt 0.504167 0.502500
vt 0.504167 0.647500
vt 0.379167 0.747500
vt 0.504167 0.697500
vt 0.504167 0.747500
vt 0.379167 0.697500
vt 0.504167 0.597500
vt 0.379167 0.647500
vt 0.379167 0.502500
vt 0.379167 0.552500
vt 0.495833 0.597500
vt 0.495833 0.552500
vt 0.379167 0.597500
vt 0.379167 0.833333
vt 0.495833 0.833333
vt 0.379167 0.833333
vt 0.620833 0.833333
vt 0.504167 0.833333
vt 0.504167 0.833333
vt 0.379167 0.833333
s 0
f 13/1/1 11/2/1 12/3/1
f 10/4/1 2/5/1 9/6/1
f 25/7/1 23/8/1 24/9/1
f 33/10/1 31/11/1 32/12/1
f 36/13/1 34/14/1 35/15/1
f 17/16/1 15/17/1 16/18/1
f 21/19/1 19/20/1 20/21/1
f 4/22/1 5/23/1 6/24/1
f 29/25/1 27/26/1 28/27/1
f 44/2/2 45/1/2 43/3/2
f 40/4/2 70/5/2 42/28/2
f 56/8/2 57/7/2 55/9/2
f 64/11/2 65/10/2 63/12/2
f 67/14/2 68/13/2 66/15/2
f 48/17/2 49/16/2 47/18/2
f 52/20/2 53/19/2 51/21/2
f 38/23/2 69/22/2 37/24/2
f 60/26/2 61/25/2 59/27/2
f 50/29/3 15/17/3 18/29/3
f 68/13/4 3/30/4 36/13/4
f 52/20/5 20/21/5 19/20/5
f 72/30/3 34/14/3 3/30/3
f 51/21/6 21/19/6 20/21/6
f 38/23/5 6/24/5 5/23/5
f 53/19/4 22/31/4 21/19/4
f 39/32/3 5/23/3 7/32/3
f 64/11/6 32/12/6 31/11/6
f 54/31/3 19/20/3 22/31/3
f 41/6/4 10/4/4 9/6/4
f 63/12/4 33/10/4 32/12/4
f 56/8/5 24/9/5 23/8/5
f 40/4/3 8/28/3 10/4/3
f 67/14/5 35/15/5 34/14/5
f 55/9/6 25/7/6 24/9/6
f 44/2/5 12/3/5 11/2/5
f 66/15/6 36/13/6 35/15/6
f 57/7/4 26/33/4 25/7/4
f 43/3/6 13/1/6 12/3/6
f 37/24/6 4/22/6 6/24/6
f 58/33/3 23/8/3 26/33/3
f 45/1/4 14/34/4 13/1/4
f 69/22/4 7/32/4 4/22/4
f 60/26/5 28/27/5 27/26/5
f 46/34/3 11/2/3 14/34/3
f 42/28/5 2/5/5 8/28/5
f 59/27/6 29/25/6 28/27/6
f 48/17/5 16/18/5 15/17/5
f 70/5/6 9/6/6 2/5/6
f 61/25/4 30/35/4 29/25/4
f 47/18/6 17/16/6 16/18/6
f 71/36/5 31/11/5 1/36/5
f 62/35/3 27/26/3 30/35/3
f 49/16/4 18/29/4 17/16/4
f 65/10/3 1/36/3 33/10/3
f 83/2/2 85/1/2 84/3/2
f 82/4/2 74/5/2 80/28/2
f 95/8/2 97/7/2 96/9/2
f 107/11/2 109/10/2 108/12/2
f 110/14/2 112/13/2 111/15/2
f 87/17/2 89/16/2 88/18/2
f 91/20/2 93/19/2 92/21/2
f 103/37/2 105/38/2 104/39/2
f 77/23/2 76/22/2 78/24/2
f 99/26/2 101/25/2 100/27/2
f 121/1/1 120/2/1 119/3/1
f 116/4/1 150/5/1 117/6/1
f 133/7/1 132/8/1 131/9/1
f 145/10/1 144/11/1 143/12/1
f 148/13/1 147/14/1 146/15/1
f 125/16/1 124/17/1 123/18/1
f 129/19/1 128/20/1 127/21/1
f 141/38/1 140/37/1 139/39/1
f 149/22/1 114/23/1 113/24/1
f 137/25/1 136/26/1 135/27/1
f 104/39/5 140/37/5 103/37/5
f 87/17/3 126/29/3 90/29/3
f 75/30/4 148/13/4 112/13/4
f 105/38/6 139/39/6 104/39/6
f 92/21/5 128/20/5 91/20/5
f 110/14/3 152/30/3 75/30/3
f 106/40/4 141/38/4 105/38/4
f 93/19/6 127/21/6 92/21/6
f 78/24/5 114/23/5 77/23/5
f 103/37/3 142/40/3 106/40/3
f 94/31/4 129/19/4 93/19/4
f 77/23/3 115/32/3 79/32/3
f 108/12/6 144/11/6 107/11/6
f 91/20/3 130/31/3 94/31/3
f 82/4/4 117/6/4 81/6/4
f 109/10/4 143/12/4 108/12/4
f 96/9/5 132/8/5 95/8/5
f 80/28/3 116/4/3 82/4/3
f 111/15/5 147/14/5 110/14/5
f 97/7/6 131/9/6 96/9/6
f 84/3/5 120/2/5 83/2/5
f 112/13/6 146/15/6 111/15/6
f 98/33/4 133/7/4 97/7/4
f 85/1/6 119/3/6 84/3/6
f 76/22/6 113/24/6 78/24/6
f 95/8/3 134/33/3 98/33/3
f 86/34/4 121/1/4 85/1/4
f 79/32/4 149/22/4 76/22/4
f 100/27/5 136/26/5 99/26/5
f 83/2/3 122/34/3 86/34/3
f 74/5/5 118/28/5 80/28/5
f 101/25/6 135/27/6 100/27/6
f 88/18/5 124/17/5 87/17/5
f 81/6/6 150/5/6 74/5/6
f 102/35/4 137/25/4 101/25/4
f 89/16/6 123/18/6 88/18/6
f 107/11/5 151/36/5 73/36/5
f 99/26/3 138/35/3 102/35/3
f 90/29/4 125/16/4 89/16/4
f 73/36/3 145/10/3 109/10/3
f 163/41/5 165/42/5 164/43/5
f 177/44/5 174/45/5 176/45/5
f 153/44/5 160/45/5 161/46/5
f 171/42/5 169/41/5 170/43/5
f 155/45/5 154/44/5 156/46/5
f 167/42/5 159/47/5 168/47/5
f 184/42/4 182/41/4 185/43/4
f 187/45/4 186/44/4 202/44/4
f 189/45/4 200/44/4 188/46/4
f 194/41/4 195/42/4 193/43/4
f 201/44/4 178/45/4 197/46/4
f 181/47/4 191/42/4 192/47/4
f 189/45/3 161/46/3 160/45/3
f 179/44/6 154/44/6 157/44/6
f 196/42/1 169/41/1 172/42/1
f 190/44/1 160/45/1 162/44/1
f 181/47/3 168/47/3 159/47/3
f 197/46/3 155/45/3 156/46/3
f 183/42/6 165/42/6 166/42/6
f 202/44/6 173/44/6 177/44/6
f 178/45/2 157/44/2 155/45/2
f 199/45/2 175/44/2 176/45/2
f 185/43/3 163/41/3 164/43/3
f 187/45/3 176/45/3 174/45/3
f 180/42/1 159/47/1 158/42/1
f 188/46/2 153/44/2 161/46/2
f 192/47/2 167/42/2 168/47/2
f 191/42/6 158/42/6 167/42/6
f 182/41/2 166/42/2 163/41/2
f 200/44/6 162/44/6 153/44/6
f 194/41/3 170/43/3 169/41/3
f 184/42/1 164/43/1 165/42/1
f 201/44/1 156/46/1 154/44/1
f 193/43/2 171/42/2 170/43/2
f 186/44/1 174/45/1 173/44/1
f 198/44/6 177/44/6 175/44/6
f 195/42/6 172/42/6 171/42/6
f 13/1/1 14/34/1 11/2/1
f 10/4/1 8/28/1 2/5/1
f 25/7/1 26/33/1 23/8/1
f 33/10/1 1/36/1 31/11/1
f 36/13/1 3/30/1 34/14/1
f 17/16/1 18/29/1 15/17/1
f 21/19/1 22/31/1 19/20/1
f 4/22/1 7/32/1 5/23/1
f 29/25/1 30/35/1 27/26/1
f 44/2/2 46/34/2 45/1/2
f 40/4/2 41/6/2 70/5/2
f 56/8/2 58/33/2 57/7/2
f 64/11/2 71/36/2 65/10/2
f 67/14/2 72/30/2 68/13/2
f 48/17/2 50/29/2 49/16/2
f 52/20/2 54/31/2 53/19/2
f 38/23/2 39/32/2 69/22/2
f 60/26/2 62/35/2 61/25/2
f 50/29/3 48/17/3 15/17/3
f 68/13/4 72/30/4 3/30/4
f 52/20/5 51/21/5 20/21/5
f 72/30/3 67/14/3 34/14/3
f 51/21/6 53/19/6 21/19/6
f 38/23/5 37/24/5 6/24/5
f 53/19/4 54/31/4 22/31/4
f 39/32/3 38/23/3 5/23/3
f 64/11/6 63/12/6 32/12/6
f 54/31/3 52/20/3 19/20/3
f 41/6/4 40/4/4 10/4/4
f 63/12/4 65/10/4 33/10/4
f 56/8/5 55/9/5 24/9/5
f 40/4/3 42/28/3 8/28/3
f 67/14/5 66/15/5 35/15/5
f 55/9/6 57/7/6 25/7/6
f 44/2/5 43/3/5 12/3/5
f 66/15/6 68/13/6 36/13/6
f 57/7/4 58/33/4 26/33/4
f 43/3/6 45/1/6 13/1/6
f 37/24/6 69/22/6 4/22/6
f 58/33/3 56/8/3 23/8/3
f 45/1/4 46/34/4 14/34/4
f 69/22/4 39/32/4 7/32/4
f 60/26/5 59/27/5 28/27/5
f 46/34/3 44/2/3 11/2/3
f 42/28/5 70/5/5 2/5/5
f 59/27/6 61/25/6 29/25/6
f 48/17/5 47/18/5 16/18/5
f 70/5/6 41/6/6 9/6/6
f 61/25/4 62/35/4 30/35/4
f 47/18/6 49/16/6 17/16/6
f 71/36/5 64/11/5 31/11/5
f 62/35/3 60/26/3 27/26/3
f 49/16/4 50/29/4 18/29/4
f 65/10/3 71/36/3 1/36/3
f 83/2/2 86/34/2 85/1/2
f 82/4/2 81/6/2 74/5/2
f 95/8/2 98/33/2 97/7/2
f 107/11/2 73/36/2 109/10/2
f 110/14/2 75/30/2 112/13/2
f 87/17/2 90/29/2 89/16/2
f 91/20/2 94/31/2 93/19/2
f 103/37/2 106/40/2 105/38/2
f 77/23/2 79/32/2 76/22/2
f 99/26/2 102/35/2 101/25/2
f 121/1/1 122/34/1 120/2/1
f 116/4/1 118/28/1 150/5/1
f 133/7/1 134/33/1 132/8/1
f 145/10/1 151/36/1 144/11/1
f 148/13/1 152/30/1 147/14/1
f 125/16/1 126/29/1 124/17/1
f 129/19/1 130/31/1 128/20/1
f 141/38/1 142/40/1 140/37/1
f 149/22/1 115/32/1 114/23/1
f 137/25/1 138/35/1 136/26/1
f 104/39/5 139/39/5 140/37/5
f 87/17/3 124/17/3 126/29/3
f 75/30/4 152/30/4 148/13/4
f 105/38/6 141/38/6 139/39/6
f 92/21/5 127/21/5 128/20/5
f 110/14/3 147/14/3 152/30/3
f 106/40/4 142/40/4 141/38/4
f 93/19/6 129/19/6 127/21/6
f 78/24/5 113/24/5 114/23/5
f 103/37/3 140/37/3 142/40/3
f 94/31/4 130/31/4 129/19/4
f 77/23/3 114/23/3 115/32/3
f 108/12/6 143/12/6 144/11/6
f 91/20/3 128/20/3 130/31/3
f 82/4/4 116/4/4 117/6/4
f 109/10/4 145/10/4 143/12/4
f 96/9/5 131/9/5 132/8/5
f 80/28/3 118/28/3 116/4/3
f 111/15/5 146/15/5 147/14/5
f 97/7/6 133/7/6 131/9/6
f 84/3/5 119/3/5 120/2/5
f 112/13/6 148/13/6 146/15/6
f 98/33/4 134/33/4 133/7/4
f 85/1/6 121/1/6 119/3/6
f 76/22/6 149/22/6 113/24/6
f 95/8/3 132/8/3 134/33/3
f 86/34/4 122/34/4 121/1/4
f 79/32/4 115/32/4 149/22/4
f 100/27/5 135/27/5 136/26/5
f 83/2/3 120/2/3 122/34/3
f 74/5/5 150/5/5 118/28/5
f 101/25/6 137/25/6 135/27/6
f 88/18/5 123/18/5 124/17/5
f 81/6/6 117/6/6 150/5/6
f 102/35/4 138/35/4 137/25/4
f 89/16/6 125/16/6 123/18/6
f 107/11/5 144/11/5 151/36/5
f 99/26/3 136/26/3 138/35/3
f 90/29/4 126/29/4 125/16/4
f 73/36/3 151/36/3 145/10/3
f 163/41/5 166/42/5 165/42/5
f 176/45/5 175/44/5 177/44/5
f 177/44/5 173/44/5 174/45/5
f 153/44/5 162/44/5 160/45/5
f 171/42/5 172/42/5 169/41/5
f 155/45/5 157/44/5 154/44/5
f 167/42/5 158/42/5 159/47/5
f 184/42/4 183/42/4 182/41/4
f 202/44/4 198/44/4 199/45/4
f 199/45/4 187/45/4 202/44/4
f 189/45/4 190/44/4 200/44/4
f 194/41/4 196/42/4 195/42/4
f 201/44/4 179/44/4 178/45/4
f 181/47/4 180/42/4 191/42/4
f 189/45/3 188/46/3 161/46/3
f 179/44/6 201/44/6 154/44/6
f 196/42/1 194/41/1 169/41/1
f 190/44/1 189/45/1 160/45/1
f 181/47/3 192/47/3 168/47/3
f 197/46/3 178/45/3 155/45/3
f 183/42/6 184/42/6 165/42/6
f 202/44/6 186/44/6 173/44/6
f 178/45/2 179/44/2 157/44/2
f 199/45/2 198/44/2 175/44/2
f 185/43/3 182/41/3 163/41/3
f 187/45/3 199/45/3 176/45/3
f 180/42/1 181/47/1 159/47/1
f 188/46/2 200/44/2 153/44/2
f 192/47/2 191/42/2 167/42/2
f 191/42/6 180/42/6 158/42/6
f 182/41/2 183/42/2 166/42/2
f 200/44/6 190/44/6 162/44/6
f 194/41/3 193/43/3 170/43/3
f 184/42/1 185/43/1 164/43/1
f 201/44/1 197/46/1 156/46/1
f 193/43/2 195/42/2 171/42/2
f 186/44/1 187/45/1 174/45/1
f 198/44/6 202/44/6 177/44/6
f 195/42/6 196/42/6 172/42/6
